<?xml version="1.0" standalone="no"?>
<!DOCTYPE svg PUBLIC "-//W3C//DTD SVG 20010904//EN"
 "http://www.w3.org/TR/2001/REC-SVG-20010904/DTD/svg10.dtd">
<svg version="1.0" xmlns="http://www.w3.org/2000/svg"
 width="1380.000000pt" height="849.000000pt" viewBox="0 0 1380.000000 849.000000"
 preserveAspectRatio="xMidYMid meet">

<g transform="translate(0.000000,849.000000) scale(0.100000,-0.100000)"
fill="#000000" stroke="none">
<path d="M10766 7931 c-4 -6 -36 -70 -72 -142 l-64 -130 75 -149 c44 -88 81
-150 89 -150 8 0 92 -12 187 -26 l172 -25 104 103 103 104 -197 28 c-109 15
-202 30 -207 33 -5 3 -48 87 -96 186 -50 103 -90 175 -94 168z"/>
<path d="M12292 7698 c-90 -185 -115 -228 -134 -233 -30 -6 -357 -54 -425 -62
-29 -3 -53 -8 -53 -10 0 -3 81 -84 180 -181 l180 -177 -25 -145 c-14 -80 -34
-191 -44 -247 -10 -57 -18 -103 -17 -103 0 0 100 52 221 115 121 63 224 115
230 115 5 0 107 -52 225 -114 118 -63 216 -113 218 -111 1 1 -16 113 -39 248
l-41 246 182 177 182 178 -253 37 c-139 20 -254 40 -256 45 -2 5 -52 108 -112
229 l-108 220 -111 -227z m200 -125 c45 -93 82 -170 84 -172 2 -2 86 -15 188
-30 101 -14 187 -29 190 -32 4 -3 -55 -66 -131 -140 l-137 -133 28 -166 c15
-91 30 -178 33 -194 6 -28 5 -28 -170 63 l-176 92 -168 -89 c-102 -54 -169
-84 -171 -77 -2 6 11 92 28 191 l30 179 -135 134 c-75 74 -132 137 -128 141 4
4 82 17 173 30 91 12 174 26 185 30 14 5 47 62 100 174 44 91 84 166 88 166 4
0 44 -75 89 -167z"/>
<path d="M12366 7403 l-37 -112 -116 -3 -116 -3 91 -64 c51 -36 92 -67 92 -70
0 -4 -15 -53 -33 -111 -19 -58 -33 -106 -31 -108 1 -2 40 24 86 59 45 34 88
63 94 66 7 2 52 -25 100 -61 49 -35 90 -61 92 -58 1 4 -11 48 -28 97 -16 49
-30 97 -30 106 0 11 36 43 89 81 l90 63 -116 5 -116 5 -37 110 -37 110 -37
-112z"/>
<path d="M8911 7697 l-53 -164 38 -116 38 -117 196 0 196 0 103 75 104 75
-216 0 -216 0 -66 205 c-36 113 -67 205 -68 205 -2 0 -27 -74 -56 -163z"/>
<path d="M1178 7508 l-76 -233 -240 -5 -240 -5 185 -134 c102 -74 188 -141
191 -149 3 -8 -27 -113 -67 -234 -40 -121 -71 -221 -69 -223 1 -1 89 60 193
136 105 76 195 139 200 139 6 -1 96 -63 200 -139 105 -77 191 -138 192 -137 1
1 -31 105 -72 231 -70 214 -74 231 -57 242 9 7 97 71 195 142 l179 131 -243 2
-243 3 -76 233 -75 233 -77 -233z"/>
<path d="M5020 7544 c-52 -107 -98 -198 -102 -200 -4 -3 -103 -19 -220 -36
-117 -17 -215 -32 -216 -34 -2 -1 67 -72 155 -157 l158 -155 -37 -218 c-20
-120 -36 -220 -35 -221 1 -1 90 45 197 101 l195 103 175 -90 c96 -50 184 -96
195 -104 30 -20 33 -16 24 30 -4 23 -22 121 -38 218 l-31 177 161 159 161 159
-198 28 c-110 15 -209 30 -222 33 -18 4 -44 46 -123 204 -54 110 -100 199
-102 199 -2 0 -45 -88 -97 -196z"/>
<path d="M10465 7500 c-66 -134 -94 -182 -110 -185 -11 -2 -100 -15 -199 -29
-98 -14 -180 -27 -182 -29 -3 -2 61 -66 141 -142 80 -75 145 -145 145 -154 0
-9 -14 -98 -32 -198 -17 -101 -29 -185 -26 -189 3 -3 83 35 177 85 94 50 175
91 181 91 5 0 87 -40 181 -90 159 -84 197 -101 186 -82 -3 4 -20 94 -38 201
l-33 194 150 142 149 143 -35 6 c-19 3 -102 15 -185 26 -82 12 -159 23 -171
25 -15 3 -43 50 -109 185 -49 99 -92 180 -95 180 -3 0 -46 -81 -95 -180z"/>
<path d="M8696 7458 l-67 -208 -215 -2 -216 -3 171 -123 c94 -68 171 -129 171
-135 0 -11 -109 -349 -125 -391 -5 -10 62 33 148 95 86 63 167 120 180 128 23
14 31 9 192 -108 92 -67 169 -120 171 -118 2 2 -25 93 -60 202 -60 183 -63
200 -48 211 9 7 87 64 173 126 l157 113 -216 5 -216 5 -67 205 -66 205 -67
-207z"/>
<path d="M6937 7619 c-9 -6 -44 -63 -76 -127 -32 -64 -68 -126 -80 -136 -16
-14 -56 -25 -149 -38 -135 -20 -167 -33 -183 -75 -17 -45 5 -83 106 -178 93
-88 95 -91 95 -135 0 -25 -7 -83 -16 -130 -22 -120 -20 -148 8 -176 44 -44 65
-41 192 25 72 38 130 61 149 61 19 0 79 -24 151 -61 130 -66 153 -69 194 -23
27 31 27 54 2 199 -25 140 -27 135 100 259 90 89 91 90 88 134 -4 64 -28 78
-168 97 -63 9 -127 21 -142 27 -22 8 -42 38 -93 139 -36 71 -74 133 -85 139
-24 13 -70 12 -93 -1z"/>
<path d="M3198 7608 c-9 -7 -37 -78 -63 -158 -29 -89 -55 -152 -67 -162 -17
-16 -42 -18 -184 -18 -155 0 -164 -1 -174 -21 -21 -38 -3 -65 80 -124 137 -97
180 -134 180 -157 0 -11 -20 -84 -45 -160 -25 -77 -45 -145 -45 -152 0 -19 34
-46 58 -46 12 0 78 41 146 90 68 50 134 90 146 90 12 0 77 -40 145 -90 129
-95 158 -105 190 -70 18 20 18 24 -19 138 -53 161 -59 188 -52 214 4 14 47 52
112 98 130 92 154 113 154 139 0 45 -21 51 -190 51 -136 0 -161 2 -178 18 -13
10 -38 71 -67 159 -25 79 -53 149 -61 158 -19 18 -45 19 -66 3z"/>
<path d="M10287 7531 l-108 -16 80 -79 79 -79 46 91 c25 51 46 94 46 97 0 7
-17 5 -143 -14z"/>
<path d="M8416 7441 c5 -5 47 -36 94 -71 l84 -62 17 49 c35 105 46 93 -87 93
-68 0 -114 -4 -108 -9z"/>
<path d="M10996 7037 c-58 -54 -87 -87 -82 -95 6 -10 117 -71 217 -120 5 -2
-24 184 -44 285 -1 7 -42 -25 -91 -70z"/>
<path d="M9128 7042 c-43 -31 -77 -59 -77 -62 0 -5 245 -183 259 -188 5 -2
-15 67 -43 152 -28 86 -54 156 -57 155 -3 0 -40 -26 -82 -57z"/>
<path d="M10684 6072 l-81 -167 -18 38 c-11 20 -21 37 -25 37 -3 0 -26 -40
-50 -89 -30 -62 -50 -91 -64 -95 -12 -2 -93 -15 -181 -27 -88 -12 -166 -24
-173 -28 -8 -5 21 -37 83 -95 52 -48 95 -91 95 -95 0 -4 -60 -15 -132 -25 -73
-10 -164 -23 -202 -30 l-69 -11 173 -169 173 -168 -40 -236 c-23 -131 -40
-238 -39 -238 0 -1 93 47 206 107 113 60 212 109 220 109 8 0 107 -49 220
-109 113 -60 206 -108 206 -107 1 0 -13 89 -31 196 -19 107 -32 196 -31 197 2
2 63 -28 136 -67 74 -38 135 -69 136 -67 1 1 -14 98 -34 215 l-36 212 64 65
c43 43 59 65 47 65 -9 0 -17 4 -17 9 0 5 54 60 120 123 99 92 118 114 103 120
-14 6 -431 68 -454 68 -3 0 -52 97 -109 215 -57 118 -106 215 -109 215 -3 -1
-43 -76 -87 -168z m180 -114 c49 -101 89 -184 90 -184 0 -1 87 -14 191 -29
105 -15 196 -31 202 -34 8 -4 -24 -43 -90 -108 l-102 -102 -187 27 c-103 15
-189 30 -191 32 -3 3 -37 70 -77 149 l-72 144 69 143 c37 79 71 144 74 144 3
0 45 -82 93 -182z m-208 -260 l92 -183 198 -28 c109 -15 201 -30 204 -33 2 -3
-62 -69 -143 -147 l-149 -142 32 -180 c17 -99 34 -190 37 -202 3 -13 2 -23 -2
-23 -4 0 -88 42 -186 93 l-179 92 -180 -94 c-100 -51 -183 -92 -185 -90 -2 2
13 94 32 204 l34 200 -148 142 c-81 78 -145 144 -142 147 2 3 94 18 203 33
l198 28 92 183 c50 100 93 182 96 182 3 0 46 -82 96 -182z m-263 -43 c-26 -52
-52 -95 -58 -95 -6 0 -44 33 -84 74 -70 71 -73 75 -50 81 28 6 196 32 221 34
15 1 9 -16 -29 -94z m721 -489 c14 -82 26 -151 26 -153 0 -10 -223 112 -227
124 -3 8 33 49 83 97 49 46 90 83 91 82 1 -1 13 -68 27 -150z"/>
<path d="M8902 6016 c-35 -108 -67 -196 -71 -196 -4 0 -21 43 -38 96 l-30 96
-48 -149 c-26 -81 -52 -154 -58 -161 -8 -10 -55 -12 -204 -10 -106 2 -193 1
-193 -2 1 -3 26 -23 58 -44 31 -22 91 -65 132 -95 l75 -56 -234 -5 -235 -5
212 -153 c116 -84 213 -156 215 -160 5 -8 0 -27 -94 -309 -37 -112 -64 -203
-62 -203 3 0 102 70 220 156 204 148 215 155 236 141 12 -8 109 -78 216 -156
107 -77 196 -139 198 -137 2 1 -28 99 -66 217 -39 117 -68 215 -66 217 2 2 79
-50 170 -117 91 -66 167 -121 169 -121 2 0 -28 96 -67 213 -39 116 -72 223
-74 237 -3 22 10 35 101 100 103 74 104 75 73 80 -31 5 -28 8 99 100 l132 95
-67 2 c-36 2 -156 4 -266 5 l-199 3 -81 245 c-44 135 -83 251 -85 258 -3 7
-34 -75 -68 -182z m138 -168 l64 -198 214 0 c125 0 211 -4 208 -9 -4 -5 -51
-41 -105 -80 l-100 -71 -194 0 -195 0 -36 113 c-20 62 -36 119 -36 126 0 28
103 332 110 324 4 -4 35 -97 70 -205z m-207 -195 l65 -198 218 -5 219 -5 -95
-70 c-52 -39 -130 -95 -173 -125 -66 -47 -77 -59 -74 -80 2 -14 31 -107 65
-208 38 -115 56 -182 47 -178 -7 2 -86 58 -176 123 -89 65 -164 118 -166 118
-1 0 -80 -56 -173 -124 -94 -68 -173 -121 -175 -119 -2 2 25 94 60 203 36 110
65 201 65 202 0 1 -79 59 -176 130 l-176 128 219 3 219 2 62 189 c34 103 62
193 62 199 0 7 4 12 10 12 5 0 38 -89 73 -197z m-193 -9 c0 -3 -9 -37 -21 -75
l-21 -69 -71 50 c-40 28 -85 61 -102 75 l-30 24 123 1 c67 0 122 -3 122 -6z
m630 -505 c27 -84 48 -155 46 -157 -4 -3 -230 159 -255 183 -11 11 -1 23 69
74 46 34 85 59 87 57 3 -2 26 -73 53 -157z"/>
<path d="M1166 5770 l-87 -270 -280 -2 -280 -3 226 -164 c124 -90 224 -169
222 -175 -11 -27 -167 -514 -167 -519 0 -3 102 68 226 159 l226 165 37 -25
c20 -14 122 -88 226 -164 105 -77 191 -138 192 -137 2 1 -34 114 -78 251 -45
137 -83 256 -86 265 -3 12 56 60 221 180 l225 164 -278 3 -279 2 -10 28 c-6
15 -46 136 -90 269 l-78 243 -88 -270z m155 -135 l63 -195 203 0 c112 0 203
-3 203 -7 -1 -5 -73 -60 -160 -122 -88 -63 -160 -120 -160 -125 0 -6 27 -94
60 -195 33 -102 58 -187 56 -189 -2 -2 -55 34 -118 80 -62 46 -136 100 -164
120 l-51 37 -163 -119 c-90 -66 -166 -118 -168 -116 -2 2 25 90 59 196 36 112
58 195 52 198 -5 4 -80 59 -167 122 l-158 115 208 3 209 3 63 194 c34 107 64
195 66 195 2 0 32 -88 67 -195z"/>
<path d="M12305 5829 c-73 -145 -105 -201 -120 -204 -11 -3 -101 -16 -200 -30
-99 -14 -189 -28 -201 -30 -17 -4 6 -31 138 -163 l159 -158 -20 -114 c-43
-244 -51 -293 -51 -307 0 -9 67 20 198 88 l197 102 194 -102 c106 -56 195
-100 197 -98 3 2 -11 94 -31 204 -19 110 -35 208 -35 217 0 10 70 85 155 168
86 83 153 153 150 156 -3 4 -101 20 -218 37 l-212 30 -100 202 -101 203 -99
-201z m139 -231 l33 -103 123 -3 124 -3 -97 -70 c-53 -39 -97 -74 -97 -78 0
-4 16 -54 35 -111 19 -57 33 -105 31 -107 -2 -3 -44 25 -94 61 -49 36 -93 66
-98 66 -5 0 -49 -29 -98 -65 -49 -36 -91 -63 -93 -61 -3 3 46 166 64 211 2 6
-40 42 -93 80 l-97 70 120 3 119 3 28 87 c39 118 46 136 52 129 3 -3 20 -52
38 -109z"/>
<path d="M5006 5786 l-108 -222 -232 -33 c-127 -19 -237 -36 -244 -39 -9 -3
54 -70 163 -176 l178 -171 -42 -239 c-23 -131 -40 -240 -38 -242 2 -3 99 45
214 106 115 60 215 110 222 110 6 0 107 -50 222 -111 116 -61 212 -109 214
-107 1 1 -13 91 -31 198 -19 107 -37 215 -41 238 l-6 44 173 173 c95 95 168
175 164 177 -5 3 -114 21 -243 39 l-234 33 -108 223 c-59 123 -109 223 -111
222 -2 0 -52 -100 -112 -223z m203 -100 c72 -152 87 -176 110 -180 14 -3 91
-15 171 -26 80 -11 158 -23 174 -26 28 -6 26 -9 -113 -148 l-142 -142 31 -182
c17 -100 30 -188 28 -195 -2 -9 -58 16 -176 78 l-173 92 -177 -93 c-97 -51
-178 -92 -179 -90 -1 1 13 90 32 196 l34 195 -140 138 c-78 76 -138 141 -135
144 3 4 77 17 164 29 86 13 172 26 190 29 31 6 37 15 120 181 48 95 89 174 92
174 3 0 43 -79 89 -174z"/>
<path d="M6930 5843 c-29 -15 -45 -38 -95 -135 -33 -65 -67 -124 -75 -132 -9
-8 -72 -23 -148 -34 -140 -21 -160 -30 -188 -84 -34 -66 -15 -105 105 -220 64
-61 91 -94 91 -110 0 -13 -9 -75 -19 -138 -11 -63 -17 -127 -14 -142 3 -16 21
-41 40 -58 54 -47 92 -42 235 32 l119 62 124 -62 c153 -76 189 -80 241 -28 29
29 34 40 34 83 -1 26 -7 84 -15 128 -26 144 -28 138 84 248 110 107 124 137
97 201 -22 53 -61 71 -196 90 -66 9 -127 19 -135 22 -7 3 -41 61 -75 130 -33
68 -71 130 -83 138 -38 25 -89 28 -127 9z m75 -53 c20 -8 39 -36 81 -125 66
-136 91 -161 171 -170 148 -18 207 -33 225 -55 12 -14 16 -31 12 -44 -3 -12
-48 -60 -99 -109 -119 -112 -122 -119 -95 -270 11 -63 20 -126 20 -138 0 -29
-27 -59 -53 -59 -11 0 -73 27 -138 60 -65 33 -130 60 -145 60 -15 0 -82 -28
-149 -62 -180 -91 -203 -77 -172 107 19 111 21 173 7 195 -5 8 -52 57 -104
110 -53 53 -96 104 -96 113 0 9 10 27 23 40 19 22 39 27 147 41 80 11 134 23
150 35 14 9 52 70 86 136 34 65 70 124 80 132 21 16 17 15 49 3z"/>
<path d="M3194 5836 c-35 -16 -41 -27 -102 -216 l-37 -115 -173 -5 c-168 -5
-174 -6 -193 -29 -24 -29 -25 -82 -1 -109 9 -11 70 -59 135 -106 64 -48 117
-91 117 -97 0 -6 -20 -72 -45 -148 -25 -76 -45 -145 -45 -154 0 -47 42 -87 93
-87 13 0 81 42 155 96 l132 96 131 -96 c148 -108 171 -115 220 -67 16 16 29
40 29 53 0 13 -20 84 -45 158 -25 74 -45 140 -45 147 0 7 53 52 118 99 64 47
125 95 135 106 22 26 21 77 -3 108 -18 25 -22 25 -192 30 l-173 5 -47 140
c-26 77 -50 148 -53 158 -4 11 -22 25 -41 33 -39 16 -31 16 -70 0z m103 -203
c26 -80 55 -156 64 -167 16 -19 30 -21 190 -26 220 -6 221 -9 72 -115 -146
-104 -163 -122 -163 -161 0 -18 20 -95 45 -171 38 -117 42 -140 31 -152 -12
-12 -32 -1 -133 71 -142 103 -158 111 -189 104 -14 -4 -81 -48 -150 -98 -110
-80 -127 -89 -140 -76 -13 13 -9 32 31 155 25 77 45 153 45 170 0 36 -18 53
-163 157 -149 107 -147 110 69 116 121 4 176 9 187 18 9 8 39 83 67 168 68
204 73 204 137 7z"/>
<path d="M8797 4347 c-160 -435 -183 -492 -198 -489 -8 2 -72 21 -144 42 -71
21 -131 37 -133 35 -1 -1 16 -64 38 -140 22 -76 40 -144 40 -151 0 -7 -67 -68
-150 -134 -82 -67 -150 -125 -150 -128 0 -4 69 -63 153 -131 l154 -124 -43
-145 c-24 -80 -41 -148 -39 -150 2 -2 68 15 146 37 77 23 142 41 144 39 1 -2
60 -160 130 -351 75 -204 131 -343 136 -335 4 7 62 162 129 343 66 182 124
333 128 337 4 4 69 -11 145 -34 76 -22 140 -38 143 -36 2 3 -14 66 -36 140
-22 75 -40 142 -39 150 0 7 67 67 150 133 82 65 149 122 149 127 0 4 -67 62
-150 128 -82 67 -150 126 -150 132 0 6 18 73 41 150 22 77 39 141 37 143 -1 1
-66 -16 -143 -40 -77 -23 -143 -39 -146 -36 -4 3 -64 161 -134 351 -70 190
-128 346 -129 347 -1 1 -36 -94 -79 -210z m182 -267 c44 -118 82 -222 86 -231
5 -13 -12 -21 -90 -44 l-97 -29 -66 18 c-37 10 -81 24 -99 31 l-31 13 37 99
c21 54 64 170 96 257 57 156 59 159 72 130 7 -16 49 -126 92 -244z m-471 -262
c45 -13 81 -26 80 -29 -2 -4 -31 -30 -65 -59 -42 -34 -64 -47 -67 -38 -3 7
-12 38 -21 68 -9 30 -18 61 -20 68 -6 16 -3 16 93 -10z m827 5 c-3 -10 -13
-44 -22 -75 -9 -32 -20 -58 -25 -58 -10 0 -121 88 -126 99 -2 7 130 48 162 50
13 1 16 -4 11 -16z m-559 -83 l98 -29 102 29 c116 34 124 35 124 17 0 -8 38
-45 85 -82 47 -38 85 -69 85 -71 0 -1 -13 -47 -30 -102 -16 -56 -30 -110 -30
-120 0 -10 14 -65 31 -121 17 -57 29 -104 27 -105 -42 -31 -139 -115 -159
-137 l-25 -29 -105 31 -104 31 -105 -30 -104 -31 -30 33 c-24 26 -137 123
-154 132 -2 1 12 53 31 115 l33 114 -33 110 c-18 61 -33 110 -33 111 0 1 36
30 81 65 44 34 85 71 90 81 12 23 8 23 125 -12z m-320 -273 l25 -86 -26 -86
c-14 -47 -28 -85 -32 -85 -11 0 -212 165 -210 173 3 10 210 178 214 173 2 -2
15 -42 29 -89z m987 -1 c54 -43 96 -82 95 -86 -4 -11 -201 -170 -210 -170 -4
0 -17 33 -28 73 -12 39 -23 78 -26 86 -2 7 5 45 17 85 11 39 23 79 25 89 7 21
6 22 127 -77z m-859 -491 c1 -8 -163 -59 -170 -53 -3 3 25 100 41 146 4 10 24
-1 66 -35 34 -27 62 -53 63 -58z m733 28 c12 -43 20 -79 18 -81 -4 -4 -158 40
-168 48 -7 6 108 109 123 110 3 0 15 -35 27 -77z m-335 -48 l87 -26 -34 -92
c-107 -292 -151 -405 -159 -407 -5 0 -38 77 -73 172 -35 95 -77 208 -93 250
l-28 77 86 26 c48 14 92 27 97 29 6 2 15 2 20 0 6 -2 49 -15 97 -29z"/>
<path d="M12279 4180 c-307 -49 -569 -289 -650 -595 -31 -116 -31 -290 -1
-404 79 -292 294 -505 587 -582 114 -29 281 -29 396 1 262 70 468 256 557 503
162 454 -94 942 -558 1062 -76 20 -252 28 -331 15z m210 -370 l75 -230 244 0
c142 0 242 -4 240 -9 -2 -7 -179 -138 -385 -286 -1 0 31 -104 72 -230 41 -126
72 -231 70 -233 -2 -3 -92 60 -199 138 l-196 141 -192 -140 c-106 -77 -196
-141 -200 -141 -4 0 -6 6 -3 13 2 6 36 110 75 231 41 126 68 221 62 225 -59
38 -382 278 -382 284 0 4 110 7 244 7 l243 0 72 219 c39 120 71 223 71 230 0
42 24 -18 89 -219z"/>
<path d="M10539 3968 c-40 -73 -98 -178 -128 -233 l-57 -100 -224 -122 c-124
-68 -226 -126 -227 -130 -2 -5 100 -64 226 -132 l228 -124 128 -233 128 -234
32 57 c17 32 75 137 128 234 l97 176 225 123 c124 67 227 126 230 129 2 4 -99
63 -226 132 l-229 124 -112 205 c-61 113 -119 218 -129 233 l-17 29 -73 -134z"/>
<path d="M1046 3894 c-28 -85 -54 -154 -59 -154 -7 0 -186 126 -275 193 -9 7
-11 6 -8 -4 55 -168 106 -330 106 -338 0 -8 -57 -11 -177 -11 l-177 0 109 -80
c61 -44 121 -88 134 -98 l25 -18 -133 -97 -133 -97 176 0 c128 0 176 -3 176
-12 0 -6 -21 -75 -46 -152 -64 -195 -65 -198 -51 -189 7 4 70 49 141 100 70
51 131 93 135 93 4 0 30 -70 57 -156 l51 -156 47 149 c27 81 52 152 56 157 5
5 70 -36 147 -92 76 -55 139 -99 141 -97 2 2 -22 79 -52 172 -31 93 -56 172
-56 176 0 3 79 8 176 9 l176 3 -131 94 c-73 52 -128 97 -124 101 4 4 64 47
131 96 l124 89 -176 3 c-97 1 -176 6 -176 10 0 4 25 82 55 172 30 90 55 168
55 172 0 7 -132 -85 -257 -179 l-31 -24 -54 159 -53 159 -49 -153z"/>
<path d="M3062 3928 c-33 -71 -62 -128 -65 -128 -2 0 -63 32 -135 70 -72 39
-134 70 -136 70 -3 0 -3 -6 -1 -12 11 -30 52 -294 46 -299 -3 -4 -66 -14 -139
-24 -73 -10 -135 -21 -137 -25 -2 -3 39 -49 91 -101 l94 -94 -100 -100 -101
-101 141 -19 c78 -11 145 -22 149 -25 5 -3 -2 -66 -15 -140 -13 -74 -23 -143
-24 -153 0 -15 24 -6 133 52 l133 70 63 -127 63 -127 64 127 63 126 132 -69
c73 -38 134 -67 136 -65 2 2 -8 70 -23 151 -19 107 -23 149 -15 154 6 4 72 16
146 25 74 10 135 22 135 26 0 4 -43 47 -95 95 -52 48 -95 90 -95 95 0 4 43 49
95 100 52 51 92 96 90 100 -2 4 -66 15 -141 25 -78 11 -138 24 -140 30 -3 7 7
75 21 152 14 78 25 144 25 148 0 4 -62 -26 -137 -65 -75 -40 -139 -69 -140
-64 -2 5 -30 63 -62 129 l-58 120 -61 -127z"/>
<path d="M6996 3973 l-37 -76 -63 62 -62 61 -11 -75 c-6 -42 -13 -78 -16 -81
-3 -3 -42 13 -86 36 l-82 41 6 -33 c3 -18 9 -55 14 -83 5 -27 7 -53 5 -56 -2
-4 -21 -3 -41 1 -92 20 -133 27 -133 23 0 -3 21 -43 46 -90 25 -46 44 -86 41
-89 -3 -3 -38 -10 -79 -15 -110 -15 -109 -12 -39 -83 l62 -63 -75 -34 c-42
-19 -76 -37 -76 -40 0 -3 32 -20 70 -39 39 -19 70 -35 70 -36 0 -2 -25 -26
-55 -55 -30 -28 -55 -55 -55 -59 0 -4 34 -12 76 -18 41 -5 78 -13 81 -16 3 -3
-11 -37 -32 -76 -20 -40 -35 -73 -33 -75 2 -2 41 2 88 11 46 8 85 12 88 10 2
-3 -3 -46 -12 -97 -8 -51 -14 -94 -12 -96 2 -2 37 15 79 37 86 47 81 50 93
-62 3 -38 9 -68 12 -68 4 0 35 28 69 62 34 34 64 60 67 57 2 -2 19 -35 39 -74
l35 -69 37 74 c21 41 39 77 40 78 2 2 30 -24 63 -59 l59 -63 12 65 c6 36 11
73 11 82 0 9 2 17 5 17 3 0 41 -18 85 -40 44 -22 81 -40 83 -40 2 0 -3 36 -12
80 -8 44 -12 83 -8 86 4 4 42 0 84 -8 43 -8 79 -14 81 -13 2 2 -16 41 -40 88
-23 48 -40 89 -36 92 3 3 44 11 92 17 l87 12 -63 63 c-34 34 -60 64 -57 67 2
2 37 20 78 40 l73 35 -71 36 c-39 19 -71 39 -71 44 0 4 24 31 54 59 59 56 59
57 -32 68 -33 3 -64 9 -71 13 -7 5 3 33 30 84 l40 77 -33 -6 c-18 -3 -55 -10
-81 -15 -86 -16 -83 -24 -52 129 7 34 10 62 8 62 -3 0 -38 -18 -78 -40 -40
-22 -75 -40 -78 -40 -2 0 -8 21 -11 48 -4 26 -9 64 -12 86 l-6 38 -62 -61
c-34 -33 -66 -61 -71 -61 -6 0 -23 29 -39 65 -16 36 -32 68 -36 70 -3 2 -23
-30 -44 -72z"/>
<path d="M5008 4035 c-3 -6 -18 -48 -32 -94 -40 -126 -35 -125 -106 -30 -35
46 -67 89 -73 94 -6 6 -7 -24 -4 -87 4 -55 3 -98 -2 -98 -5 0 -46 27 -90 60
-45 33 -81 56 -81 51 0 -5 14 -51 30 -101 17 -50 30 -98 30 -105 0 -10 -29 -4
-110 20 -60 18 -110 31 -110 29 0 -3 31 -46 70 -97 l69 -92 -112 -5 -111 -5
94 -69 95 -70 -107 -35 c-60 -19 -108 -38 -108 -41 0 -3 38 -16 85 -30 47 -14
85 -27 85 -30 -1 -3 -33 -27 -72 -55 l-71 -50 112 -3 c61 -1 111 -6 111 -10 0
-4 -29 -48 -64 -97 -35 -50 -63 -91 -62 -92 2 -2 49 13 106 32 57 19 105 34
106 32 1 -1 -13 -49 -32 -107 -19 -57 -33 -108 -32 -112 2 -4 43 23 91 59 48
36 91 62 95 59 4 -4 9 -57 10 -118 l4 -110 60 87 c33 48 64 83 68 78 4 -4 18
-39 30 -78 13 -38 25 -74 28 -80 3 -5 22 40 42 100 l36 109 70 -92 69 -93 5
96 5 96 60 -44 c33 -24 72 -51 87 -61 l27 -18 -34 103 c-19 57 -35 108 -35
115 0 8 29 3 88 -16 158 -49 153 -53 73 51 -39 50 -71 95 -71 100 0 5 50 9
112 9 l111 0 -91 65 c-51 37 -92 69 -92 73 0 4 48 24 108 44 59 20 100 39 92
42 -8 3 -48 15 -88 27 -40 12 -72 25 -70 30 2 5 34 31 73 59 l69 50 -117 0
c-64 0 -117 2 -117 5 0 2 29 46 65 96 36 51 64 94 62 95 -2 2 -47 -12 -101
-32 -55 -19 -101 -32 -104 -29 -3 2 11 54 30 115 20 60 35 110 34 110 -1 0
-44 -31 -96 -69 -52 -38 -96 -69 -97 -68 -1 1 -3 55 -4 120 -2 64 -4 117 -6
117 -1 0 -30 -41 -65 -90 -35 -51 -65 -85 -67 -78 -3 7 -17 49 -31 93 -14 44
-29 75 -32 70z"/>
<path d="M10597 1865 l-135 -271 -263 -38 c-145 -20 -279 -41 -298 -44 l-34
-7 216 -210 217 -210 -20 -115 c-11 -63 -34 -193 -51 -288 -17 -95 -29 -177
-27 -181 2 -4 121 55 266 131 l263 139 267 -140 c147 -77 268 -139 269 -138 1
1 -7 47 -17 102 -10 55 -33 187 -51 294 l-32 194 214 212 215 213 -40 6 c-269
38 -533 77 -543 81 -7 2 -73 125 -147 272 l-134 268 -135 -270z m173 82 c0
-43 -44 -63 -70 -32 -16 19 -5 62 18 68 27 6 52 -11 52 -36z m165 -448 c17 -4
103 -17 193 -30 l163 -23 -139 -140 -139 -141 33 -185 c17 -102 31 -187 29
-188 -2 -2 -79 37 -172 86 l-168 90 -172 -90 c-95 -49 -173 -84 -173 -77 0 6
14 93 31 192 l31 181 -139 132 c-76 72 -136 134 -133 137 3 3 88 17 190 32
102 15 186 28 187 29 1 1 41 80 89 176 l87 175 86 -175 c78 -158 89 -175 116
-181z m-853 -6 c21 -19 23 -44 6 -61 -39 -39 -100 17 -63 58 22 24 33 25 57 3z
m1343 -3 c38 -42 -19 -94 -59 -54 -20 20 -20 33 1 56 21 23 36 23 58 -2z
m-1071 -766 c20 -8 21 -48 1 -64 -8 -7 -25 -10 -40 -6 -19 5 -25 13 -25 35 0
15 3 31 7 34 8 9 36 9 57 1z m814 -32 c4 -36 -13 -48 -53 -38 -19 5 -25 13
-25 35 0 36 8 43 45 39 26 -3 30 -7 33 -36z"/>
<path d="M10662 1594 l-70 -140 -134 -18 c-73 -10 -143 -20 -155 -23 -18 -4
-7 -19 88 -110 85 -82 109 -111 109 -132 0 -14 -11 -86 -24 -158 -13 -73 -23
-133 -22 -133 1 0 62 31 135 70 73 39 137 70 143 70 6 0 72 -32 146 -71 l134
-71 -6 29 c-3 15 -15 85 -26 154 l-22 126 111 108 c61 60 109 110 107 112 -2
2 -71 14 -152 26 l-149 22 -71 140 -72 139 -70 -140z"/>
<path d="M1035 1890 c-32 -99 -60 -180 -62 -180 -1 0 -76 54 -165 119 -90 66
-164 118 -165 117 -1 -1 27 -92 62 -201 36 -110 65 -201 65 -202 0 -2 -93 -4
-206 -5 l-205 -3 150 -109 c83 -60 151 -113 151 -117 0 -4 -68 -56 -150 -115
l-150 -109 205 -3 c113 -1 205 -3 205 -5 0 -1 -29 -92 -65 -202 -35 -109 -63
-200 -62 -201 1 -2 76 51 167 117 l164 119 11 -28 c6 -15 33 -97 60 -183 l50
-156 60 179 c33 99 64 179 68 179 5 1 80 -51 168 -115 87 -63 159 -113 159
-109 0 3 -27 89 -60 192 -33 103 -60 192 -60 199 0 8 55 12 202 14 l202 3
-152 109 c-84 60 -152 112 -152 115 0 3 69 56 153 116 l152 110 -203 3 c-147
2 -202 6 -202 14 0 7 27 96 60 199 33 103 60 189 60 192 0 4 -74 -48 -166
-115 -91 -66 -166 -119 -167 -117 -2 2 -29 84 -61 182 -31 97 -58 177 -60 177
-1 0 -28 -81 -61 -180z m109 -155 c22 -69 42 -125 44 -125 2 0 56 38 120 85
64 46 117 83 120 81 2 -2 -14 -60 -36 -128 -22 -67 -43 -133 -46 -145 -7 -22
-7 -22 146 -25 l153 -3 -112 -80 c-62 -44 -112 -82 -112 -85 0 -3 50 -41 111
-85 l112 -80 -152 -3 c-84 -1 -152 -5 -152 -8 0 -3 21 -68 46 -145 25 -78 44
-142 42 -145 -3 -2 -57 34 -122 81 -64 47 -118 85 -120 85 -1 0 -20 -56 -42
-125 -21 -68 -42 -125 -46 -125 -3 0 -25 56 -48 125 -28 85 -45 123 -53 118
-7 -4 -61 -42 -120 -86 -60 -43 -111 -77 -113 -75 -2 3 18 70 45 151 l50 147
-150 0 c-82 0 -149 3 -149 8 1 4 48 40 105 81 58 41 105 77 105 80 0 4 -50 42
-112 86 l-111 80 156 3 155 2 -49 147 c-27 81 -47 148 -45 151 2 2 53 -32 113
-75 59 -44 113 -82 120 -86 8 -5 25 33 53 118 23 69 45 125 48 125 4 0 25 -57
46 -125z"/>
<path d="M5002 2050 c-5 -14 -24 -71 -42 -127 -17 -57 -33 -103 -35 -103 -1 0
-38 47 -81 104 l-79 105 -3 -114 -3 -114 -92 67 c-51 38 -97 72 -104 75 -6 4
8 -51 32 -123 27 -82 39 -130 32 -130 -7 0 -64 16 -127 35 -63 19 -119 35
-123 35 -5 0 28 -47 72 -105 45 -57 81 -107 81 -109 0 -3 -58 -7 -129 -8
l-129 -3 109 -79 c61 -43 108 -81 105 -83 -2 -3 -60 -24 -127 -48 l-122 -42
109 -34 109 -35 -94 -67 -94 -67 136 0 c76 0 137 -2 137 -5 0 -2 -31 -48 -68
-102 -38 -54 -72 -104 -76 -110 -4 -7 45 5 108 27 64 22 120 40 125 40 5 0
-10 -58 -34 -130 -24 -71 -42 -130 -40 -130 3 0 53 36 112 80 60 43 109 74
111 67 1 -7 6 -68 10 -136 l7 -123 69 101 c50 72 72 97 78 88 4 -8 19 -52 34
-98 14 -46 29 -87 33 -92 4 -4 24 47 45 113 21 66 42 120 46 120 4 0 42 -46
84 -102 l76 -102 0 112 c0 62 3 112 6 112 4 0 45 -28 93 -63 119 -87 112 -84
96 -35 -7 24 -25 80 -40 126 -15 46 -25 86 -22 88 3 3 60 -11 127 -31 66 -21
123 -36 125 -33 2 2 -32 49 -76 106 -43 56 -79 104 -79 107 0 3 59 5 132 5
l131 0 -104 76 c-57 42 -108 80 -112 84 -5 4 48 27 117 50 70 24 125 45 123
47 -2 2 -50 18 -106 36 l-103 32 92 65 91 65 -136 3 -136 3 75 109 c42 60 76
111 76 114 0 2 -52 -14 -115 -36 -64 -23 -118 -38 -121 -35 -3 3 10 57 31 119
20 62 38 119 41 126 4 14 -10 5 -141 -91 -65 -47 -80 -55 -82 -40 -1 10 -5 71
-9 136 l-6 118 -70 -101 c-39 -56 -72 -99 -75 -97 -2 3 -19 52 -38 109 -29 92
-34 100 -43 78z m62 -328 c3 -2 26 28 52 67 26 39 51 71 55 71 5 0 10 -43 11
-96 l3 -96 78 57 c43 32 80 56 81 54 2 -2 -9 -44 -25 -94 -16 -49 -29 -93 -29
-96 0 -3 36 7 81 22 44 16 85 29 90 29 6 0 -15 -36 -46 -80 l-56 -80 95 0 c53
0 96 -3 96 -7 -1 -5 -25 -25 -56 -46 -30 -21 -52 -42 -49 -46 2 -5 32 -16 65
-25 33 -9 60 -20 60 -24 0 -5 -39 -21 -87 -36 l-87 -29 34 -29 c19 -16 54 -41
77 -56 24 -15 43 -30 43 -34 0 -5 -43 -8 -96 -8 l-95 0 62 -80 c34 -44 60 -82
58 -84 -2 -2 -46 9 -96 24 -107 32 -100 41 -59 -85 13 -38 22 -72 20 -74 -2
-2 -35 20 -73 48 -39 28 -72 51 -73 51 -2 0 -2 -24 0 -53 2 -30 2 -66 0 -82
-3 -27 -6 -25 -61 48 -31 42 -59 77 -62 77 -2 0 -17 -40 -32 -90 -15 -49 -30
-87 -34 -82 -3 4 -16 37 -29 75 -25 77 -18 79 -91 -28 l-34 -50 -10 97 -10 97
-75 -54 c-41 -30 -77 -55 -80 -55 -4 0 7 41 23 90 17 50 27 93 24 96 -3 3 -39
-7 -81 -22 -42 -15 -79 -24 -82 -21 -3 3 18 38 46 79 l51 73 -97 5 -98 5 63
47 63 47 -72 22 c-39 12 -68 25 -63 29 4 4 45 20 90 36 l82 28 -72 53 c-40 29
-75 53 -79 53 -5 0 -8 4 -8 10 0 5 43 11 95 12 l95 3 -61 78 c-34 43 -59 80
-58 82 2 1 45 -10 94 -25 50 -15 92 -26 93 -25 2 2 -8 40 -23 85 -14 45 -25
86 -23 90 2 5 33 -14 70 -41 37 -27 70 -49 74 -49 3 0 4 34 2 75 -2 41 0 75 4
75 3 0 30 -32 59 -71 57 -78 59 -78 84 9 34 116 35 116 61 33 13 -41 26 -76
28 -79z"/>
<path d="M12477 1817 c-43 -133 -85 -261 -94 -284 l-16 -43 -299 -2 -299 -3
240 -175 c133 -96 241 -177 241 -182 0 -4 -22 -76 -50 -160 -112 -346 -130
-402 -127 -404 1 -1 94 66 207 148 113 83 222 161 242 175 l37 25 233 -169
c128 -93 238 -172 244 -176 6 -3 1 24 -12 61 -92 273 -163 506 -156 511 5 3
114 83 243 176 l233 170 -300 3 -300 2 -93 285 c-51 157 -94 285 -94 285 -1 0
-37 -109 -80 -243z m153 -189 l64 -198 221 -2 220 -3 -178 -129 c-98 -70 -176
-133 -174 -140 21 -58 128 -399 125 -401 -2 -1 -79 53 -173 121 -93 68 -173
124 -178 124 -5 0 -86 -56 -180 -125 -94 -68 -172 -123 -174 -122 -1 2 27 92
63 202 35 109 63 204 60 211 -2 6 -79 65 -170 130 -91 66 -165 122 -166 126 0
4 97 9 216 10 l215 3 67 202 c36 112 69 199 72 195 4 -4 35 -96 70 -204z"/>
<path d="M12497 1580 l-58 -180 -186 -2 -187 -3 151 -109 150 -109 -50 -151
c-27 -83 -53 -163 -58 -179 l-8 -27 32 22 c39 27 248 177 263 189 7 6 67 -32
160 -100 82 -60 150 -107 152 -106 2 2 -22 80 -53 175 -39 119 -53 175 -46
183 5 7 72 57 149 112 l140 100 -187 3 -188 2 -57 180 c-32 99 -59 180 -59
180 -1 0 -28 -81 -60 -180z m102 -142 l32 -97 112 -3 112 -3 -87 -65 c-49 -35
-88 -69 -88 -75 0 -5 14 -52 31 -103 17 -51 29 -96 26 -98 -3 -3 -42 22 -88
55 -45 34 -87 61 -92 61 -5 0 -47 -28 -93 -61 -47 -34 -86 -60 -89 -58 -2 2
12 51 30 107 l33 103 -91 67 -91 67 114 3 115 3 33 106 c19 58 37 102 42 97 4
-5 22 -53 39 -106z"/>
<path d="M12525 1416 l-30 -91 -93 -5 -93 -5 74 -53 75 -53 -15 -47 c-8 -26
-20 -66 -28 -89 -7 -24 -11 -43 -8 -43 3 0 36 23 73 50 37 28 72 50 76 50 5 0
41 -22 79 -50 38 -27 70 -48 72 -46 3 2 -7 39 -21 82 -14 43 -26 83 -26 89 0
5 33 33 73 60 l72 50 -94 5 -95 5 -26 80 c-14 44 -28 85 -31 91 -2 6 -17 -30
-34 -80z"/>
<path d="M3055 1910 c-37 -74 -69 -136 -70 -138 -2 -2 -68 31 -148 72 -79 42
-146 76 -149 76 -3 0 8 -75 23 -167 16 -91 27 -168 25 -170 -2 -3 -62 -13
-133 -24 -70 -10 -142 -21 -159 -24 l-32 -5 112 -110 111 -109 -109 -110 c-73
-73 -105 -112 -95 -115 8 -2 79 -14 158 -25 79 -11 146 -22 148 -25 2 -2 -9
-78 -25 -170 -16 -91 -26 -166 -23 -166 4 0 71 34 149 75 78 41 143 75 145 75
2 0 34 -63 71 -139 l69 -140 68 140 69 141 146 -77 c80 -42 148 -75 150 -72 3
2 -7 72 -21 155 -14 82 -25 157 -25 165 0 16 45 26 211 48 46 6 90 15 97 18
10 5 -20 40 -98 113 l-111 104 111 109 c60 60 108 110 106 113 -4 3 -294 51
-317 52 -4 0 -3 19 2 43 28 149 51 289 46 293 -2 3 -69 -29 -147 -71 -78 -41
-144 -75 -146 -75 -2 0 -35 62 -73 137 l-68 138 -68 -135z m184 -220 c5 0 62
28 126 61 l116 61 -5 -33 c-4 -19 -15 -82 -25 -142 l-19 -107 22 -5 c11 -3 68
-12 125 -20 57 -8 107 -18 110 -21 3 -3 -34 -44 -83 -92 l-88 -86 94 -88 c51
-48 90 -87 87 -88 -17 -1 -218 -31 -242 -36 -20 -4 -26 -10 -23 -22 8 -27 46
-255 43 -258 -1 -2 -54 24 -117 56 -63 33 -118 59 -123 60 -4 0 -31 -47 -59
-105 -29 -58 -55 -105 -58 -105 -3 1 -27 48 -54 105 -27 58 -54 105 -59 105
-4 0 -60 -27 -123 -61 -95 -51 -114 -58 -114 -42 0 10 9 71 21 136 12 65 19
121 16 124 -3 3 -47 11 -99 19 -51 7 -108 16 -127 19 l-34 6 89 90 89 90 -88
86 c-48 47 -86 88 -84 90 2 1 53 10 113 18 128 18 144 22 144 38 0 7 -9 61
-20 121 -30 162 -37 155 93 86 63 -33 118 -60 123 -60 5 0 33 48 63 107 l53
108 54 -108 c30 -59 58 -107 63 -107z"/>
<path d="M6994 1960 c-21 -44 -40 -80 -43 -80 -3 0 -35 29 -71 65 l-66 66 -13
-83 c-8 -46 -16 -87 -18 -91 -3 -4 -43 13 -90 38 -47 25 -88 44 -90 41 -2 -2
3 -43 11 -92 9 -48 14 -89 12 -92 -2 -2 -42 4 -88 12 -47 9 -89 16 -95 16 -5
0 12 -43 39 -96 28 -52 48 -97 46 -99 -2 -2 -37 -9 -78 -15 -137 -20 -133 -12
-55 -90 38 -38 67 -71 64 -72 -2 -2 -41 -21 -87 -43 l-83 -39 78 -39 c43 -22
80 -41 82 -43 3 -3 -23 -33 -58 -68 -71 -71 -71 -71 33 -82 95 -10 95 -10 48
-102 -23 -44 -42 -82 -42 -84 0 -3 45 3 100 12 116 20 108 30 84 -104 -8 -48
-13 -90 -10 -93 3 -3 41 14 85 38 44 23 83 41 85 38 3 -3 10 -47 17 -98 l12
-93 71 71 c39 39 75 71 79 71 4 0 24 -36 44 -81 l37 -80 43 85 c24 48 45 86
47 86 3 0 33 -29 67 -65 42 -44 65 -61 70 -53 4 6 10 39 14 72 11 105 5 102
104 51 48 -25 89 -45 92 -45 3 0 -2 41 -10 90 -8 50 -12 92 -9 95 2 3 39 -2
82 -10 43 -8 84 -15 92 -15 10 0 0 28 -33 93 -26 50 -49 95 -51 98 -2 4 37 12
85 19 48 6 94 13 102 16 10 3 -7 27 -54 74 l-69 69 90 42 89 41 -80 40 c-44
22 -82 42 -85 45 -3 2 25 33 61 68 l66 65 -31 5 c-97 15 -150 25 -153 29 -2 2
16 41 41 86 26 45 46 83 46 85 0 1 -46 -6 -102 -16 -57 -10 -104 -16 -105 -15
-1 1 6 50 16 109 10 59 16 107 14 107 -2 0 -40 -18 -85 -41 -92 -46 -93 -46
-102 40 -14 119 -8 117 -90 32 l-74 -75 -41 82 c-23 45 -43 82 -45 82 -2 0
-21 -36 -42 -80z m76 -120 c17 -33 34 -60 39 -60 4 0 32 25 61 56 29 30 53 54
55 52 1 -2 7 -34 13 -72 6 -37 13 -70 16 -73 2 -3 34 12 70 32 65 36 66 36 66
13 -1 -12 -7 -53 -14 -90 -15 -78 -20 -75 81 -57 35 6 66 9 68 7 3 -2 -11 -34
-30 -70 l-36 -66 76 -13 76 -12 -52 -53 -52 -52 67 -34 67 -34 -71 -34 -70
-34 56 -57 c63 -64 65 -62 -49 -75 -31 -4 -57 -9 -57 -13 0 -3 18 -40 41 -83
22 -43 36 -78 32 -78 -4 0 -41 6 -82 14 l-73 14 5 -28 c3 -15 9 -51 13 -80 l7
-53 -76 40 -76 40 -6 -46 c-4 -25 -9 -59 -12 -76 l-6 -30 -53 60 c-29 33 -55
58 -57 55 -3 -3 -19 -34 -37 -69 -35 -70 -35 -70 -71 12 -12 26 -24 47 -28 47
-4 0 -31 -25 -61 -55 -29 -30 -57 -52 -61 -50 -4 3 -10 36 -14 75 -4 38 -10
70 -14 70 -3 0 -35 -16 -70 -35 -36 -19 -66 -33 -68 -31 -2 2 3 41 11 87 8 46
13 85 12 87 -2 1 -32 -2 -67 -8 -104 -16 -101 -18 -63 53 18 34 34 65 34 68 0
3 -34 12 -76 19 l-76 12 52 53 53 53 -62 31 c-33 17 -61 33 -61 36 0 3 30 18
67 35 l67 30 -54 55 c-30 30 -52 57 -49 60 3 2 40 10 81 17 l77 11 -40 80
c-22 43 -39 80 -37 82 2 2 36 -3 77 -10 l73 -12 -5 46 c-3 25 -9 61 -13 80
l-7 34 77 -40 c42 -22 78 -38 80 -34 2 3 7 34 11 69 4 34 10 62 13 62 4 0 30
-23 59 -52 l52 -51 32 66 c19 37 35 67 36 67 1 0 16 -27 33 -60z"/>
<path d="M8796 1783 c-42 -131 -82 -250 -88 -265 l-10 -28 -281 -2 -280 -3
209 -152 c115 -83 217 -158 228 -165 17 -14 16 -21 -38 -184 -89 -271 -116
-357 -113 -360 1 -1 85 59 187 133 102 74 203 147 226 163 l40 28 225 -163
c123 -89 225 -161 227 -160 2 2 -35 121 -83 266 -47 144 -82 266 -78 270 5 3
107 78 227 165 l220 159 -282 3 -281 2 -87 265 c-47 146 -87 265 -88 265 -1 0
-37 -107 -80 -237z m140 -139 l56 -176 -53 -54 c-29 -30 -56 -54 -59 -54 -3 0
-31 24 -64 53 l-59 52 58 178 c32 97 60 177 61 177 2 0 28 -79 60 -176z m-175
-265 c32 -29 59 -55 59 -58 0 -8 -176 -111 -188 -111 -12 0 -286 199 -290 211
-2 5 70 9 178 9 l182 0 59 -51z m659 47 c0 -6 -275 -205 -293 -212 -12 -4
-169 77 -196 102 -2 1 23 28 55 58 l59 55 188 1 c103 0 187 -2 187 -4z m-580
-300 l0 -125 -146 -106 c-80 -58 -148 -104 -150 -102 -2 2 22 81 54 177 l57
174 85 52 c47 29 88 53 93 53 4 1 7 -55 7 -123z m170 70 l85 -52 58 -173 c32
-95 56 -176 53 -178 -2 -3 -70 43 -150 102 l-146 107 0 124 c0 68 3 124 8 123
4 0 45 -24 92 -53z"/>
</g>
</svg>
