<?xml version="1.0" standalone="no"?>
<!DOCTYPE svg PUBLIC "-//W3C//DTD SVG 20010904//EN"
 "http://www.w3.org/TR/2001/REC-SVG-20010904/DTD/svg10.dtd">
<svg version="1.0" xmlns="http://www.w3.org/2000/svg"
 width="777.000000pt" height="519.000000pt" viewBox="0 0 777.000000 519.000000"
 preserveAspectRatio="xMidYMid meet">

<g transform="translate(0.000000,519.000000) scale(0.100000,-0.100000)"
fill="#000000" stroke="none">
<path d="M0 2595 l0 -2595 3885 0 3885 0 0 2595 0 2595 -3885 0 -3885 0 0
-2595z m476 2358 c63 -57 78 -83 49 -83 -11 0 -15 -12 -15 -44 0 -62 -7 -76
-41 -76 -28 0 -29 2 -29 50 l0 50 -35 0 -35 0 0 -50 c0 -49 -1 -50 -30 -50
-28 0 -30 3 -32 38 0 20 0 47 1 60 1 16 -4 22 -19 22 -11 0 -20 6 -20 13 0 11
124 127 136 127 3 0 34 -26 70 -57z m1533 48 c7 -5 17 -30 22 -56 7 -39 6 -52
-7 -66 -25 -28 -13 -51 34 -67 42 -14 63 -46 47 -71 -4 -7 -54 -11 -130 -11
-76 0 -126 4 -130 11 -16 25 5 58 46 71 48 14 57 29 36 62 -16 25 -14 82 5
119 9 18 53 23 77 8z m795 -32 c26 -29 28 -37 22 -83 -5 -48 -4 -52 30 -87 34
-35 38 -59 10 -59 -6 0 -27 15 -45 34 -30 30 -36 33 -77 28 -54 -6 -90 11
-110 50 -20 39 -17 81 7 112 44 56 115 58 163 5z m2366 -9 c11 -22 20 -42 20
-45 0 -3 -25 -5 -55 -5 -52 0 -55 1 -46 19 21 39 -53 43 -98 5 -40 -33 -43
-89 -7 -131 33 -38 98 -39 130 -2 12 14 29 28 39 32 30 11 28 -11 -4 -47 -57
-66 -141 -66 -198 0 -55 63 -35 161 42 197 40 19 65 21 102 7 20 -8 27 -7 31
5 8 21 21 10 44 -35z m1509 -30 c5 -9 26 -16 55 -18 25 -2 46 -6 46 -10 0 -4
-16 -18 -35 -31 -38 -26 -40 -36 -24 -94 6 -22 8 -41 6 -44 -3 -2 -23 12 -45
32 l-41 36 -40 -37 c-35 -31 -41 -33 -41 -17 0 11 5 35 12 53 11 32 10 35 -25
65 -21 18 -37 35 -37 39 0 3 19 6 43 6 43 0 67 13 67 36 0 7 5 25 11 41 l11
28 14 -35 c8 -19 18 -42 23 -50z m762 33 c14 -48 14 -48 62 -51 26 -2 47 -6
47 -9 0 -3 -16 -20 -37 -38 l-36 -31 16 -46 c8 -26 13 -49 10 -52 -3 -3 -24
10 -45 30 l-39 35 -35 -30 c-39 -35 -60 -40 -49 -13 4 9 9 33 12 52 5 32 2 38
-31 60 -20 14 -36 28 -36 33 0 4 19 7 43 7 55 0 63 6 76 58 7 23 15 42 20 42
4 0 14 -21 22 -47z m-3032 13 c8 -9 11 -43 9 -93 l-3 -78 -65 -3 c-62 -3 -66
-4 -90 -39 l-25 -37 -3 37 c-3 35 -5 37 -37 37 l-33 0 -4 78 c-7 114 -8 112
126 112 85 0 116 -3 125 -14z m1421 -31 l0 -35 76 0 75 0 -3 -37 -3 -38 -72
-3 -72 -3 -3 -37 -3 -37 -57 54 c-32 30 -58 59 -58 65 0 11 99 105 113 106 4
0 7 -16 7 -35z m-4505 -75 l0 -95 -130 0 -130 0 -5 88 c-3 48 -3 92 -2 97 3 7
53 10 135 8 l132 -3 0 -95z m2124 16 c25 -30 -16 -67 -44 -40 -18 19 -19 26
-3 42 16 16 33 15 47 -2z m75 8 c19 -7 21 -35 4 -52 -7 -7 -17 -8 -30 -1 -21
11 -23 30 -6 47 14 14 12 14 32 6z m100 -18 c9 -13 7 -20 -8 -31 -32 -24 -62
15 -34 43 15 15 28 11 42 -12z m-3194 -672 c0 -20 17 -26 41 -14 28 15 48 -2
29 -24 -16 -21 -6 -46 20 -46 30 0 26 -36 -5 -44 -28 -7 -30 -17 -14 -48 14
-26 -4 -49 -23 -30 -20 20 -45 14 -52 -13 -4 -14 -13 -25 -21 -25 -8 0 -17 11
-21 25 -7 27 -32 33 -52 13 -19 -19 -37 4 -23 30 16 31 14 41 -14 48 -16 4
-25 13 -25 25 0 14 7 19 25 19 27 0 35 26 13 48 -19 19 4 37 30 23 29 -15 30
-15 47 20 13 25 19 28 31 18 8 -6 14 -17 14 -25z m842 14 c23 -11 48 -60 48
-93 0 -39 -26 -81 -57 -93 -39 -15 -122 -9 -134 9 -15 24 -10 75 12 102 17 22
27 26 65 25 l45 -2 -6 -36 c-3 -19 -9 -45 -12 -57 -6 -28 12 -30 39 -6 23 21
24 84 0 113 -25 31 -87 36 -132 12 -68 -37 -78 -141 -19 -185 34 -24 118 -26
154 -3 13 9 32 16 42 16 30 -1 -32 -48 -72 -56 -53 -10 -120 4 -148 30 -60 55
-50 174 17 216 44 28 113 31 158 8z m5446 -5 c86 -54 79 -194 -12 -237 -97
-46 -196 17 -196 126 0 104 119 168 208 111z m-3117 -12 c42 -42 39 -81 -13
-166 -24 -38 -48 -70 -54 -72 -19 -6 -104 139 -104 176 0 49 46 91 100 91 33
0 48 -6 71 -29z m766 9 c91 -55 80 -184 -19 -236 -34 -18 -70 -18 -113 0 -47
20 -75 69 -75 130 0 43 4 53 39 87 34 35 44 39 87 39 31 0 61 -7 81 -20z
m-2280 -12 c21 -19 23 -30 23 -109 0 -89 -5 -119 -21 -119 -5 0 -9 34 -9 75
l0 76 -97 -3 -98 -3 -3 -72 c-5 -123 -22 -83 -22 52 l0 125 102 0 c91 0 104
-2 125 -22z m759 -5 c24 -16 44 -31 44 -34 0 -9 -77 -69 -89 -69 -5 0 -11 7
-13 16 -3 14 -7 13 -31 -6 -15 -12 -34 -35 -43 -52 -21 -41 -28 -29 -14 23 8
28 26 57 51 81 21 21 39 44 39 53 0 21 6 19 56 -12z m2259 8 c3 -10 1 -30 -4
-44 -5 -14 -7 -28 -4 -31 4 -3 30 -6 59 -6 55 0 73 -12 55 -34 -7 -8 -11 -18
-10 -22 1 -5 -3 -22 -10 -39 -6 -16 -14 -36 -16 -42 -3 -9 -29 -13 -85 -13
l-80 0 0 70 c0 61 3 72 25 94 14 14 28 39 31 56 7 33 29 40 39 11z m2413 4 c6
-3 12 -9 12 -15 0 -6 -41 -10 -110 -10 -89 0 -110 3 -110 14 0 11 14 16 48 19
47 3 136 -1 160 -8z m-1628 -111 c0 -89 -3 -114 -12 -108 -7 4 -32 20 -55 36
-23 15 -53 28 -68 28 -25 0 -26 2 -23 48 3 44 5 47 33 50 16 2 47 17 70 32 22
16 43 29 48 30 4 0 7 -52 7 -116z m90 104 c-1 -16 -49 -52 -57 -44 -7 7 36 56
49 56 4 0 8 -6 8 -12z m-3245 -37 c-6 -5 -28 -11 -50 -13 l-40 -3 0 -70 0 -70
105 0 105 0 3 50 c5 84 23 80 20 -5 l-3 -75 -125 0 -125 0 -3 98 -3 97 63 0
c38 0 58 -4 53 -9z m4775 -83 c0 -51 -4 -99 -9 -106 -5 -9 -30 -12 -87 -10
l-79 3 -3 103 -3 102 91 0 90 0 0 -92z m-5442 -40 l3 -68 -91 0 -90 0 0 63 c0
35 3 67 7 71 4 4 43 5 88 4 l80 -3 3 -67z m2922 1 c0 -67 -1 -70 -22 -67 -20
3 -23 10 -26 57 -4 66 1 81 28 81 18 0 20 -6 20 -71z m1013 56 c-4 -15 -66
-12 -71 3 -3 10 6 13 34 10 22 -2 38 -7 37 -13z m-23 -96 c0 -13 -12 -11 -38
7 -12 8 -22 22 -22 30 0 12 6 11 30 -6 17 -12 30 -26 30 -31z m-4734 -564 c9
-14 14 -28 10 -32 -3 -3 -1 -12 5 -19 8 -9 5 -21 -11 -42 -15 -21 -22 -45 -23
-86 l-2 -56 -77 0 c-75 0 -78 1 -78 24 0 27 14 42 52 51 44 11 53 30 29 63
-17 25 -19 34 -9 68 12 45 22 54 60 54 19 0 33 -8 44 -25z m767 10 c22 -22 31
-84 15 -104 -8 -9 -20 -33 -27 -54 -11 -33 -10 -41 3 -62 l16 -25 -90 0 c-82
0 -90 2 -90 19 0 26 22 47 65 61 40 13 43 23 16 64 -13 19 -16 35 -11 45 4 9
13 28 19 44 8 21 17 27 40 27 16 0 36 -7 44 -15z m1641 -1 c3 -9 6 -54 6 -101
0 -75 -2 -84 -15 -73 -11 9 -15 33 -15 86 l0 74 -100 0 -101 0 3 -97 3 -98 75
-3 c41 -2 79 -7 85 -13 6 -6 -22 -9 -85 -7 l-95 3 -3 109 c-1 61 0 116 2 123
4 10 34 13 120 13 95 0 115 -3 120 -16z m3041 -9 c16 -15 25 -36 25 -55 0 -20
5 -30 15 -30 19 0 27 -34 23 -96 l-3 -49 -112 -3 -113 -3 0 72 c0 62 2 71 20
76 15 4 20 14 20 39 0 68 77 98 125 49z m835 -67 l0 -92 -37 -38 c-36 -37 -40
-38 -105 -38 l-68 0 0 130 0 130 105 0 105 0 0 -92z m-7161 72 c26 -14 36 -75
16 -102 -21 -31 -19 -41 15 -60 21 -12 30 -25 30 -43 0 -25 -1 -25 -85 -25
l-85 0 0 29 c0 22 6 31 30 41 34 14 35 16 15 50 -40 70 3 143 64 110z m5599
-69 c3 -86 0 -91 -75 -91 -43 0 -55 -4 -71 -25 -25 -31 -32 -31 -32 -2 0 14
-9 26 -22 32 -20 9 -23 19 -26 74 -2 35 -1 70 2 78 4 11 29 13 113 11 l108 -3
3 -74z m-3154 54 c8 -8 30 -15 49 -15 42 0 47 -10 47 -100 0 -45 -5 -71 -14
-79 -9 -8 -55 -11 -137 -9 l-124 3 0 90 0 90 37 3 c20 2 42 10 48 18 16 18 74
18 94 -1z m1459 0 c9 -9 40 -15 83 -17 l69 -3 0 -90 0 -90 -125 0 -125 0 -3
99 c-2 73 1 102 10 108 21 13 75 9 91 -7z m790 0 c9 -9 40 -15 83 -17 l69 -3
0 -90 0 -90 -125 0 -125 0 -5 93 c-3 52 -1 100 3 108 11 19 81 18 100 -1z
m-4555 -17 c17 -17 15 -69 -3 -95 -15 -21 -14 -23 14 -37 26 -14 41 -34 41
-57 0 -5 -27 -9 -60 -9 l-60 0 0 34 c0 19 5 38 10 41 6 4 3 17 -9 34 -17 24
-19 34 -10 64 8 31 14 37 37 37 16 0 33 -5 40 -12z m3044 -17 c-3 -23 0 -30
19 -36 20 -7 21 -9 6 -20 -14 -10 -10 -17 33 -60 33 -33 47 -52 40 -59 -7 -7
-27 6 -60 39 -39 39 -53 47 -59 36 -7 -11 -11 -9 -20 8 -9 16 -18 20 -36 15
-28 -7 -30 -2 -13 25 9 15 9 25 0 45 -13 29 -13 30 21 17 18 -7 30 -6 43 4 27
21 31 18 26 -14z m2466 -94 c3 -42 1 -47 -17 -47 -15 0 -21 -7 -22 -22 l0 -23
-16 23 c-11 15 -26 22 -49 22 -52 0 -40 18 14 22 47 3 47 3 50 41 3 30 7 37
20 35 13 -2 18 -16 20 -51z m-4700 -13 c51 -36 5 -122 -50 -93 -43 23 -50 57
-18 89 24 24 38 25 68 4z m740 -16 c9 -9 12 -9 12 0 0 17 39 15 46 -2 7 -17
-21 -62 -43 -70 -22 -9 -63 31 -63 61 0 25 27 32 48 11z m-794 -573 c20 -13
43 -22 51 -19 12 5 15 -4 15 -51 l0 -57 -37 23 c-54 32 -60 38 -44 48 10 7 8
12 -10 25 -35 24 -85 20 -115 -9 -22 -22 -54 -25 -54 -6 0 10 39 45 65 59 34
19 90 14 129 -13z m710 13 c5 -10 7 -10 12 0 8 17 24 15 24 -3 0 -13 4 -14 21
-5 17 10 20 9 17 -7 -2 -12 2 -17 14 -15 12 2 16 -2 12 -13 -4 -10 0 -15 11
-15 12 0 15 -5 10 -20 -5 -15 -2 -20 12 -20 17 -1 17 -1 -1 -12 -19 -11 -19
-11 -1 -24 17 -13 18 -14 1 -14 -13 0 -16 -5 -11 -20 5 -15 2 -20 -10 -20 -11
0 -15 -5 -11 -16 4 -12 1 -14 -14 -9 -14 4 -20 2 -20 -9 0 -10 -6 -13 -15 -10
-10 4 -15 0 -15 -11 0 -15 -2 -15 -16 -4 -13 10 -17 10 -24 -1 -7 -12 -10 -11
-16 3 -4 10 -13 16 -20 13 -8 -3 -14 1 -14 10 0 11 -6 13 -20 9 -15 -5 -18 -3
-14 9 4 10 1 16 -9 16 -10 0 -13 7 -10 20 3 13 0 20 -8 20 -10 0 -10 3 -1 12
8 8 9 15 1 25 -9 10 -8 13 1 13 7 0 10 8 7 20 -3 13 0 20 10 20 10 0 13 6 9
16 -5 13 -2 15 14 11 15 -4 20 0 20 15 0 17 3 18 15 8 12 -10 15 -10 15 4 0
19 16 21 24 4z m1594 -4 c16 -11 22 -25 22 -53 0 -30 4 -40 20 -44 33 -8 25
-37 -10 -37 -44 0 -74 -34 -67 -76 l6 -34 -65 0 -64 0 0 75 c0 60 3 75 15 75
10 0 15 10 15 29 0 43 35 81 74 81 17 0 42 -7 54 -16z m820 1 c31 -7 32 -8 32
-63 0 -66 -27 -130 -72 -167 -40 -34 -55 -32 -97 13 -41 43 -61 97 -61 166 0
41 2 46 23 46 12 0 29 5 37 10 15 10 74 8 138 -5z m-3932 -10 c-13 -10 -44
-15 -93 -15 l-73 0 0 -94 c0 -109 -3 -106 100 -106 96 0 100 2 100 65 0 58 7
85 21 85 6 0 9 -36 7 -82 l-3 -83 -120 0 -120 0 -3 109 c-1 61 0 116 2 123 4
10 31 13 103 13 88 -1 96 -2 79 -15z m64 -1 c11 -13 5 -24 -46 -76 -59 -60
-131 -114 -141 -105 -9 9 30 61 96 130 36 37 68 67 72 67 4 0 12 -7 19 -16z
m6118 -46 l-3 -63 -55 0 -55 0 -3 63 -3 62 61 0 61 0 -3 -62z m140 0 l-3 -63
-55 0 -55 0 -3 63 -3 62 61 0 61 0 -3 -62z m776 46 c3 -9 6 -29 6 -46 0 -37
-24 -33 -28 5 l-3 27 -100 0 -100 0 3 -97 3 -98 75 -3 c98 -4 120 2 120 32 0
13 7 29 15 36 13 11 15 7 15 -23 0 -67 0 -67 -131 -67 l-119 0 -1 85 c-1 47
-1 96 -1 110 0 58 -7 55 121 55 99 0 120 -3 125 -16z m-4669 -109 l0 -110
-130 0 -130 0 -3 99 c-1 55 0 106 2 113 4 11 33 13 133 11 l128 -3 0 -110z
m3039 74 c41 40 66 47 66 18 0 -6 -18 -30 -40 -52 l-40 -41 40 -39 c22 -21 40
-45 40 -51 0 -30 -25 -23 -66 17 l-44 43 -43 -42 c-39 -38 -45 -41 -57 -27
-11 14 -7 22 28 58 l42 43 -40 39 c-22 21 -40 45 -40 51 0 27 27 19 68 -19
l42 -41 44 43z m-709 11 c8 -13 -132 -174 -154 -178 -9 -1 -40 21 -69 51 -47
48 -51 55 -37 67 14 11 22 8 58 -28 24 -23 45 -42 49 -42 3 0 32 32 64 70 56
68 76 81 89 60z m2325 -65 c12 -14 8 -22 -28 -58 l-42 -42 0 28 c0 26 -2 27
-54 27 -35 0 -56 5 -59 13 -9 27 6 37 59 37 51 0 54 1 54 26 l0 25 28 -20 c16
-11 35 -27 42 -36z m-6401 -71 c-10 -12 -8 -18 7 -29 32 -24 84 -19 116 12 20
19 31 24 39 16 26 -26 -48 -83 -109 -83 -16 0 -46 12 -67 26 -21 14 -44 23
-51 20 -8 -3 -14 -2 -15 2 -4 26 -6 88 -2 94 2 3 24 -5 48 -19 37 -21 44 -28
34 -39z m5501 -24 l0 -60 -60 0 -60 0 0 60 0 60 60 0 60 0 0 -60z m140 0 l0
-60 -60 0 -60 0 0 60 0 60 60 0 60 0 0 -60z m-3170 39 c0 -6 7 -8 16 -5 12 5
15 2 10 -9 -3 -9 1 -18 10 -22 15 -5 15 -7 1 -15 -10 -5 -14 -15 -10 -25 5
-12 3 -14 -6 -8 -8 4 -17 2 -22 -6 -8 -12 -10 -12 -18 0 -5 7 -13 11 -18 8 -4
-3 -13 6 -20 19 -6 13 -7 24 -2 24 5 0 9 9 9 20 0 13 5 18 15 14 8 -4 15 -1
15 5 0 6 5 11 10 11 6 0 10 -5 10 -11z m-3124 -612 c2 -7 3 -68 2 -136 l-3
-122 -40 30 c-22 17 -45 31 -51 31 -6 0 -28 -13 -50 -30 -21 -16 -42 -30 -46
-30 -5 0 -8 58 -8 129 0 94 3 131 13 134 6 3 49 6 95 6 59 1 84 -3 88 -12z
m5524 -100 c0 -118 -12 -147 -61 -147 -54 0 -50 62 5 68 26 3 26 4 26 81 l0
78 -47 -8 c-27 -4 -54 -8 -60 -8 -10 -1 -13 -27 -13 -96 0 -82 -3 -98 -20
-115 -33 -33 -80 -20 -80 22 0 20 35 42 56 34 11 -4 14 11 14 84 0 50 1 90 3
91 20 6 164 24 170 22 4 -2 7 -50 7 -106z m-4712 95 c9 -7 12 -41 10 -138 l-3
-129 -112 -3 -113 -3 0 134 c0 74 3 137 7 140 9 10 195 8 211 -1z m740 -109
l3 -113 -91 0 -90 0 -1 73 c-1 39 -2 86 -3 102 -3 50 8 56 98 53 l81 -3 3
-112z m2256 66 c14 -17 26 -34 26 -38 0 -23 -18 -17 -52 16 -36 35 -39 36 -55
20 -16 -16 -15 -19 21 -56 49 -51 30 -64 -24 -15 -48 44 -50 64 -9 98 35 30
51 26 93 -25z m874 24 c33 -21 54 -76 50 -136 -4 -72 -22 -61 -28 17 -6 74
-25 102 -77 112 -77 14 -123 -37 -123 -136 0 -27 -4 -50 -10 -50 -6 0 -10 30
-10 69 0 60 3 74 26 100 41 49 116 59 172 24z m-2435 -8 c25 -13 32 -13 57 0
16 8 41 15 55 15 l26 0 -3 -92 -3 -93 -35 -5 c-20 -4 -41 -9 -47 -13 -6 -4
-35 -1 -65 7 -59 15 -55 7 -60 124 -4 71 -3 72 22 72 14 0 38 -7 53 -15z m906
-22 c28 -34 31 -44 31 -108 0 -42 -5 -76 -12 -83 -15 -15 -221 -16 -249 -2
-16 9 -19 22 -19 81 0 64 3 75 31 110 l31 39 78 0 c78 0 79 0 109 -37z m3121
-83 c0 -83 -3 -110 -13 -110 -17 0 -180 94 -184 106 -3 10 163 113 185 113 9
1 12 -27 12 -109z m689 58 c50 -29 90 -57 88 -62 -4 -12 -167 -106 -184 -106
-10 0 -13 27 -13 110 0 61 4 110 9 110 5 0 50 -23 100 -52z m-4754 -141 c55
-10 69 -10 137 -1 l47 6 4 91 3 92 2 -96 2 -96 -46 -7 c-26 -3 -53 -11 -60
-17 -9 -7 -26 -6 -59 5 -25 9 -57 16 -70 16 -25 0 -25 0 -23 98 l2 97 5 -90 6
-90 50 -8z m-597 165 c9 -6 12 -35 10 -108 l-3 -99 -92 -3 c-77 -2 -93 0 -93
12 0 12 16 16 68 18 l67 3 2 85 c1 47 2 88 2 93 1 9 23 9 39 -1z m2226 -83
c26 -30 33 -49 19 -49 -13 0 -83 74 -83 87 0 20 32 1 64 -38z m81 -20 c21 -19
35 -40 35 -54 0 -23 -41 -65 -63 -65 -16 0 -87 72 -87 87 0 21 12 16 50 -22
33 -32 38 -34 55 -21 19 14 19 16 -17 53 -21 21 -38 42 -38 46 0 17 32 5 65
-24z m633 -50 c-2 -24 -7 -44 -13 -44 -12 0 -19 69 -10 93 11 29 26 -4 23 -49z
m140 0 c-2 -31 -7 -44 -18 -44 -20 0 -27 84 -8 96 21 13 30 -5 26 -52z m-4757
-589 c16 -9 19 -22 19 -80 0 -58 -3 -71 -19 -80 -28 -14 -38 -13 -61 10 -15
15 -20 33 -20 70 0 37 5 55 20 70 23 23 33 24 61 10z m2397 -42 c3 -42 6 -47
30 -50 l27 -3 -41 -44 -41 -44 -36 39 c-43 46 -45 54 -12 54 23 0 25 3 25 51
0 47 2 50 23 47 19 -3 22 -10 25 -50z m651 26 c40 -16 42 -18 26 -30 -17 -13
-17 -15 8 -52 19 -29 23 -42 14 -51 -17 -17 -24 -14 -47 25 -18 27 -27 34 -44
30 -20 -5 -21 -1 -22 50 -1 36 3 53 10 51 6 -3 31 -13 55 -23z m211 -29 c0
-52 -1 -55 -19 -45 -17 9 -23 4 -42 -30 -24 -43 -27 -44 -48 -31 -12 8 -10 16
12 49 23 36 24 42 11 53 -14 11 -10 16 28 35 24 13 46 23 51 24 4 0 7 -25 7
-55z m748 15 c3 -32 -4 -43 -65 -105 -37 -39 -77 -83 -89 -99 -14 -21 -25 -28
-37 -23 -14 5 -17 21 -17 99 l0 92 37 38 c37 38 39 39 103 36 l65 -3 3 -35z
m-2410 -27 c3 -44 6 -50 21 -46 35 9 30 -14 -10 -53 l-40 -39 -34 40 c-40 47
-43 57 -12 53 19 -3 22 2 25 37 4 55 9 67 29 63 14 -2 19 -15 21 -55z m3176
51 c10 -4 16 -18 16 -35 0 -32 -11 -37 -30 -14 -7 8 -23 15 -37 15 -24 0 -24
0 -21 -92 2 -51 7 -101 12 -110 7 -16 2 -18 -37 -18 -50 0 -65 11 -42 30 11 9
15 35 15 101 0 87 -1 89 -24 89 -13 0 -29 -7 -36 -15 -7 -8 -16 -15 -21 -15
-10 0 -12 53 -2 63 8 9 186 9 207 1z m1473 -116 c62 -62 113 -116 113 -120 0
-24 -38 4 -138 105 -97 98 -119 127 -93 127 3 0 56 -51 118 -112z m-5437 -8
c0 -60 -4 -110 -8 -110 -4 0 -29 14 -55 30 -26 17 -59 30 -72 30 -23 0 -25 4
-25 50 0 47 2 50 25 50 14 0 46 13 73 30 26 16 50 30 55 30 4 0 7 -49 7 -110z
m6330 100 c0 -5 -4 -10 -9 -10 -4 0 -27 -27 -50 -59 -34 -49 -41 -67 -41 -105
0 -25 -3 -46 -8 -46 -15 0 -53 32 -51 43 4 36 -5 59 -46 113 -24 32 -45 62
-45 67 0 4 56 7 125 7 77 0 125 -4 125 -10z m-6241 -36 c13 -16 21 -41 21 -64
0 -40 -31 -90 -56 -90 -20 0 -18 8 11 42 14 16 25 38 25 48 0 10 -11 32 -25
48 -29 34 -31 42 -11 42 8 0 24 -12 35 -26z m4675 -11 c51 -36 55 -57 20 -94
-56 -58 -146 -60 -214 -3 -36 31 -38 53 -7 81 65 60 131 65 201 16z m750 0
c47 -33 56 -61 27 -87 -17 -15 -23 -16 -36 -6 -8 7 -15 22 -15 34 0 33 -22 57
-60 65 -18 3 -36 13 -38 20 -8 24 77 6 122 -26z m-5466 -15 c27 -27 2 -102
-28 -83 -8 5 -6 13 6 26 16 18 16 20 1 37 -24 26 -4 45 21 20z m5302 -4 c8 -8
15 -27 16 -41 4 -33 15 -44 55 -52 40 -8 51 -31 15 -31 -56 0 -146 55 -146 88
0 16 28 52 40 52 4 0 13 -7 20 -16z m-2172 -82 c-46 -47 -128 -103 -128 -87 0
14 38 65 89 117 52 54 56 57 73 41 18 -16 16 -19 -34 -71z m-4088 46 c0 -6 10
-22 22 -35 40 -43 109 -22 131 40 8 23 19 -2 13 -28 -4 -15 -21 -35 -41 -47
-37 -21 -45 -38 -20 -38 8 0 15 -7 15 -15 0 -11 -12 -15 -44 -15 -48 0 -72 18
-37 27 28 7 27 21 -4 33 -14 5 -34 24 -45 42 -24 40 -25 48 -5 48 8 0 15 -5
15 -12z m2581 -28 c12 0 17 -4 13 -11 -3 -6 0 -15 7 -20 12 -8 12 -10 0 -18
-8 -5 -10 -14 -6 -22 6 -9 3 -11 -9 -6 -11 4 -19 1 -23 -9 -5 -15 -7 -15 -15
-1 -5 10 -15 14 -25 10 -12 -5 -14 -3 -8 6 4 8 2 17 -6 22 -12 8 -12 11 1 18
8 6 11 13 7 17 -4 4 3 12 16 19 12 6 24 7 25 3 2 -4 13 -8 23 -8z m677 -12
c32 -32 -5 -92 -49 -81 -29 8 -44 45 -30 72 13 23 59 29 79 9z m-898 -23 c0
-24 2 -25 64 -25 36 0 68 -4 71 -10 4 -6 -23 -10 -74 -10 l-81 0 0 35 c0 19 5
35 10 35 6 0 10 -11 10 -25z m-800 -10 l0 -25 115 0 115 0 0 25 c0 14 5 25 11
25 6 0 9 -16 7 -37 l-3 -38 -132 -3 -133 -3 0 41 c0 22 5 40 10 40 6 0 10 -11
10 -25z m2546 -41 c-3 -9 -20 -14 -43 -14 l-37 0 39 41 40 40 3 -26 c2 -15 1
-33 -2 -41z m-3950 -539 c65 -42 71 -143 12 -202 -90 -89 -228 -29 -228 100 0
40 5 53 33 83 49 54 119 61 183 19z m817 29 c13 -5 8 -17 -29 -67 -24 -33 -44
-65 -44 -70 0 -10 53 -89 74 -110 8 -8 12 -17 9 -21 -8 -8 -223 -8 -223 0 0 3
13 23 28 43 70 89 70 83 18 151 -26 34 -44 65 -41 69 6 10 184 14 208 5z m665
-3 c9 -5 12 -25 10 -62 l-3 -54 -60 0 -60 0 -3 57 c-2 47 0 57 15 61 31 8 87
7 101 -2z m141 -5 c7 -8 11 -36 9 -63 l-3 -48 -62 -3 -63 -3 0 59 c0 32 3 62
7 65 13 13 100 7 112 -7z m2289 -128 l3 -138 -86 0 -85 0 0 133 c0 74 3 137 7
141 4 4 41 5 83 4 l75 -3 3 -137z m1585 110 c80 -57 73 -183 -14 -230 -96 -52
-199 12 -199 125 0 106 123 167 213 105z m1407 22 c12 -7 9 -13 -13 -30 -15
-12 -27 -26 -27 -32 0 -5 16 4 35 21 29 25 45 31 82 31 39 0 50 -5 84 -39 32
-32 39 -46 39 -77 0 -22 -9 -53 -19 -70 -13 -21 -16 -36 -10 -47 6 -10 5 -18
-2 -23 -6 -4 -16 0 -20 9 -8 13 -15 14 -40 5 -22 -8 -41 -8 -66 0 -27 8 -35 8
-40 -4 -8 -22 -25 -16 -22 9 2 12 -5 37 -15 56 -13 25 -17 46 -12 77 3 24 1
46 -4 49 -16 10 -11 53 8 64 21 13 24 13 42 1z m208 -39 c2 -17 1 -31 -2 -31
-2 0 -19 14 -36 31 -22 23 -28 34 -19 40 24 14 54 -7 57 -40z m-4058 -97 c0
-124 0 -125 -22 -122 -22 3 -23 7 -26 126 l-3 122 26 0 25 0 0 -126z m1646
110 c27 -18 54 -63 54 -89 0 -12 -13 -15 -66 -15 -64 0 -66 1 -61 23 3 12 9
39 12 60 8 41 22 46 61 21z m1612 -106 l-3 -123 -109 -3 c-71 -2 -113 1 -122
9 -10 8 -14 39 -14 119 0 58 3 110 7 113 3 4 60 7 125 7 l119 0 -3 -122z
m-4098 87 c0 -18 -5 -25 -19 -25 -11 0 -23 5 -26 10 -11 18 3 40 25 40 15 0
20 -7 20 -25z m200 0 c0 -25 -1 -25 -85 -25 -84 0 -85 0 -85 25 0 25 1 25 85
25 84 0 85 0 85 -25z m2205 -35 c-7 -32 -10 -62 -7 -65 3 -3 31 -5 63 -5 54 0
57 -1 51 -22 -14 -56 -67 -98 -123 -98 -35 0 -89 31 -104 61 -19 36 -19 92 -1
128 17 31 68 60 107 61 l27 0 -13 -60z m-1630 -85 c0 -86 -1 -90 -22 -93 -22
-3 -23 -1 -23 93 0 94 1 96 23 93 21 -3 22 -7 22 -93z m123 -14 c3 -81 2 -82
-20 -79 -21 3 -23 9 -26 77 -2 53 1 77 10 82 26 17 33 1 36 -80z m-898 43 c0
-21 -4 -25 -22 -22 -15 2 -24 11 -26 26 -3 18 1 22 22 22 21 0 26 -5 26 -26z
m200 1 c0 -25 -1 -25 -85 -25 -84 0 -85 0 -85 25 0 25 1 25 85 25 84 0 85 0
85 -25z m-925 -60 l0 -60 -60 0 -60 0 -3 49 c-5 73 -1 77 65 74 l58 -3 0 -60z
m139 49 c11 -29 6 -91 -8 -103 -8 -7 -36 -11 -63 -9 l-48 3 -3 49 c-5 71 -1
76 62 76 40 0 55 -4 60 -16z m1545 -8 c7 -8 11 -34 9 -58 -2 -36 -7 -44 -25
-46 -21 -3 -23 0 -23 51 0 67 13 85 39 53z m-961 -72 c-2 -11 -12 -19 -23 -19
-27 0 -34 42 -8 47 24 6 36 -5 31 -28z m200 2 c-3 -19 -9 -21 -83 -21 -75 0
-80 1 -83 22 -3 20 2 22 50 25 91 5 120 -1 116 -26z"/>
<path d="M2669 4961 c-56 -45 -6 -151 65 -137 50 10 71 41 67 99 -3 51 -86 75
-132 38z"/>
<path d="M7405 4907 c-6 -12 -21 -24 -34 -27 -22 -5 -22 -6 -7 -19 11 -10 15
-23 11 -38 -6 -26 -3 -28 25 -11 16 10 24 10 40 0 18 -11 20 -10 20 17 0 17 7
34 16 39 13 7 10 10 -15 15 -18 4 -31 13 -31 21 0 24 -15 26 -25 3z"/>
<path d="M4194 4899 c-3 -6 -2 -15 4 -21 13 -13 32 -2 32 18 0 16 -26 19 -36
3z"/>
<path d="M4270 4890 c0 -15 5 -20 18 -18 9 2 17 10 17 18 0 8 -8 16 -17 18
-13 2 -18 -3 -18 -18z"/>
<path d="M4344 4899 c-3 -6 -2 -15 4 -21 13 -13 32 -2 32 18 0 16 -26 19 -36
3z"/>
<path d="M1071 4952 c4 -10 114 -102 123 -102 10 0 127 102 122 107 -3 3 -32
-16 -65 -42 l-60 -47 -48 39 c-57 47 -77 60 -72 45z"/>
<path d="M361 4134 c-26 -32 -26 -46 -3 -72 29 -34 58 -37 87 -8 14 14 25 31
25 39 0 25 -41 67 -65 67 -14 0 -32 -11 -44 -26z m79 -39 c0 -29 -14 -39 -46
-31 -29 8 -34 50 -7 65 25 13 53 -5 53 -34z"/>
<path d="M1172 4143 c-18 -7 -34 -52 -26 -75 8 -27 45 -19 64 14 21 39 -2 76
-38 61z"/>
<path d="M6574 4145 c-7 -18 3 -35 21 -35 18 0 26 15 19 34 -8 20 -33 21 -40
1z"/>
<path d="M6674 4145 c-7 -18 3 -35 21 -35 18 0 26 15 19 34 -8 20 -33 21 -40
1z"/>
<path d="M6576 4063 c-12 -12 38 -53 64 -53 36 0 86 38 70 54 -8 8 -13 8 -18
0 -4 -6 -18 -17 -31 -23 -20 -11 -27 -10 -51 7 -15 12 -31 18 -34 15z"/>
<path d="M3489 4159 c-17 -33 3 -69 39 -69 33 0 52 16 52 45 0 29 -19 45 -52
45 -18 0 -31 -7 -39 -21z"/>
<path d="M4274 4185 c-7 -18 3 -35 21 -35 21 0 28 19 15 35 -16 19 -29 19 -36
0z"/>
<path d="M4270 4115 c-9 -10 -9 -15 -1 -15 6 0 11 -16 11 -35 0 -19 -4 -35
-10 -35 -5 0 -10 -4 -10 -10 0 -5 18 -10 40 -10 22 0 40 5 40 10 0 6 -4 10
-10 10 -5 0 -10 23 -10 50 0 42 -3 50 -19 50 -10 0 -24 -7 -31 -15z"/>
<path d="M1910 4175 c0 -16 6 -25 15 -25 9 0 15 9 15 25 0 16 -6 25 -15 25 -9
0 -15 -9 -15 -25z"/>
<path d="M7363 4070 c0 -47 2 -66 4 -42 2 23 2 61 0 85 -2 23 -4 4 -4 -43z"/>
<path d="M7390 4071 c0 -47 4 -81 10 -81 6 0 10 31 10 74 0 41 -4 78 -10 81
-6 4 -10 -23 -10 -74z"/>
<path d="M7434 4065 c0 -49 1 -71 3 -48 2 23 2 64 0 90 -2 26 -3 8 -3 -42z"/>
<path d="M7474 4065 c0 -49 1 -71 3 -48 2 23 2 64 0 90 -2 26 -3 8 -3 -42z"/>
<path d="M6602 3418 c-6 -6 -12 -25 -12 -40 0 -27 2 -28 51 -28 l50 0 -3 38
c-3 34 -5 37 -38 40 -19 2 -41 -3 -48 -10z"/>
<path d="M6627 3278 c-7 -49 6 -70 27 -48 11 11 13 25 8 49 -11 50 -28 49 -35
-1z"/>
<path d="M7383 3403 c26 -2 67 -2 90 0 23 2 2 3 -48 3 -49 0 -68 -1 -42 -3z"/>
<path d="M7383 3363 c26 -2 67 -2 90 0 23 2 2 3 -48 3 -49 0 -68 -1 -42 -3z"/>
<path d="M7363 3323 c15 -2 37 -2 50 0 12 2 0 4 -28 4 -27 0 -38 -2 -22 -4z"/>
<path d="M7432 3253 c1 -44 2 -45 5 -10 4 35 6 37 38 37 19 0 37 5 40 10 4 6
-12 10 -39 10 l-46 0 2 -47z"/>
<path d="M5813 3403 c26 -2 67 -2 90 0 23 2 2 3 -48 3 -49 0 -68 -1 -42 -3z"/>
<path d="M5813 3363 c26 -2 67 -2 90 0 23 2 2 3 -48 3 -49 0 -68 -1 -42 -3z"/>
<path d="M5813 3323 c26 -2 67 -2 90 0 23 2 2 3 -48 3 -49 0 -68 -1 -42 -3z"/>
<path d="M2719 3371 c-25 -25 -30 -37 -25 -59 14 -58 86 -82 126 -42 40 40 16
112 -42 126 -22 5 -34 0 -59 -25z m95 -33 c17 -50 -42 -89 -78 -52 -19 19 -21
55 -4 72 7 7 26 12 43 10 22 -2 32 -10 39 -30z"/>
<path d="M4280 3345 c0 -24 -5 -35 -15 -35 -22 0 -18 -13 10 -40 l25 -23 25
23 c28 27 32 40 10 40 -10 0 -15 11 -15 35 0 28 -4 35 -20 35 -16 0 -20 -7
-20 -35z"/>
<path d="M5083 3373 l107 -4 0 -64 c0 -37 4 -65 10 -65 6 0 10 30 10 70 l0 70
-117 -2 -118 -2 108 -3z"/>
<path d="M1296 3251 c-15 -16 -22 -18 -33 -10 -8 7 -13 8 -13 1 0 -5 7 -15 16
-22 13 -11 19 -10 36 7 11 12 19 26 16 33 -2 7 -10 4 -22 -9z"/>
<path d="M1926 2648 c-40 -35 -43 -78 -11 -116 42 -50 113 -43 143 15 18 33
14 59 -14 92 -32 39 -80 42 -118 9z m87 1 c69 -31 44 -139 -31 -139 -35 0 -72
38 -72 75 0 24 7 39 26 54 30 24 43 26 77 10z"/>
<path d="M1964 2580 c0 -41 3 -50 17 -50 21 0 33 16 19 25 -5 3 -10 22 -10 41
0 20 -5 34 -12 34 -9 0 -13 -17 -14 -50z"/>
<path d="M3493 2690 c-18 -7 -23 -17 -23 -45 l0 -35 50 0 c49 0 50 1 50 29 0
30 -22 61 -43 60 -7 0 -22 -4 -34 -9z"/>
<path d="M4252 2684 c-31 -14 -33 -17 -30 -57 3 -41 4 -42 41 -42 l37 -1 0 48
c0 26 0 51 1 55 1 13 -15 12 -49 -3z"/>
<path d="M4310 2530 c0 -27 4 -50 9 -50 11 0 55 57 64 83 5 14 0 17 -33 17
l-40 0 0 -50z"/>
<path d="M6670 2651 l0 -51 51 0 50 0 -3 48 -3 47 -47 3 -48 3 0 -50z"/>
<path d="M2647 2663 c-10 -9 -9 -93 1 -93 4 0 16 14 25 30 10 17 25 30 32 30
8 0 33 -29 56 -65 42 -67 66 -86 29 -23 -21 36 -18 68 5 68 7 0 24 -18 39 -40
14 -22 28 -40 31 -40 3 0 5 32 5 70 l0 70 -108 0 c-60 0 -112 -3 -115 -7z"/>
<path d="M3580 2506 c0 -10 9 -16 21 -16 24 0 21 23 -4 28 -10 2 -17 -3 -17
-12z"/>
<path d="M381 1892 c-6 -12 -21 -22 -33 -22 -21 0 -21 -1 -3 -13 12 -10 16
-22 13 -41 -5 -26 -5 -26 13 -10 18 16 20 16 41 -2 21 -19 21 -19 15 6 -4 16
-1 31 10 42 15 17 15 18 -6 18 -13 0 -25 9 -30 22 l-8 22 -12 -22z"/>
<path d="M1114 1795 c0 -71 1 -99 3 -62 2 37 2 96 0 130 -2 34 -3 4 -3 -68z"/>
<path d="M1230 1854 c0 -54 2 -64 13 -55 10 8 17 7 25 -1 9 -9 12 4 12 55 0
65 -1 67 -25 67 -24 0 -25 -2 -25 -66z"/>
<path d="M1884 1820 c0 -58 1 -81 3 -52 2 28 2 76 0 105 -2 28 -3 5 -3 -53z"/>
<path d="M1980 1877 c0 -36 3 -43 20 -43 17 0 20 7 20 43 0 36 -3 43 -20 43
-17 0 -20 -7 -20 -43z"/>
<path d="M2763 1795 c0 -44 2 -61 4 -37 2 23 2 59 0 80 -2 20 -4 1 -4 -43z"/>
<path d="M3438 1876 c-16 -19 -28 -37 -28 -39 0 -2 15 -4 32 -5 18 0 34 -6 36
-11 5 -14 102 -14 102 -1 0 6 16 10 35 10 19 0 35 3 35 6 0 3 -12 21 -26 40
-25 33 -29 34 -93 34 -63 0 -67 -1 -93 -34z m152 14 c0 -6 -27 -10 -60 -10
-33 0 -60 4 -60 10 0 6 27 10 60 10 33 0 60 -4 60 -10z m30 -30 c0 -5 -11 -10
-25 -10 -16 0 -25 -6 -25 -15 0 -11 -11 -15 -40 -15 -29 0 -40 4 -40 15 0 9
-9 15 -25 15 -14 0 -25 5 -25 10 0 6 37 10 90 10 53 0 90 -4 90 -10z"/>
<path d="M4310 1096 c0 -34 -1 -35 -42 -39 l-43 -4 48 -1 47 -2 0 40 c0 22 -2
40 -5 40 -3 0 -5 -15 -5 -34z"/>
<path d="M7360 1093 c1 -5 10 -19 21 -32 l20 -24 46 19 c72 30 67 44 -16 44
-39 0 -71 -3 -71 -7z"/>
<path d="M5874 1062 c-23 -15 -34 -50 -25 -75 24 -62 121 -41 121 25 0 40 -63
73 -96 50z m54 -24 c17 -17 15 -43 -4 -59 -31 -26 -70 25 -44 56 15 18 32 19
48 3z"/>
<path d="M2862 944 c4 -21 22 -23 26 -1 2 10 -3 17 -13 17 -10 0 -15 -6 -13
-16z"/>
<path d="M351 350 c-99 -42 -89 -180 15 -209 31 -8 94 4 94 19 0 5 -19 22 -43
39 -41 28 -104 107 -94 118 11 10 86 -50 116 -92 36 -50 48 -55 56 -22 13 61
9 82 -22 117 -31 34 -82 46 -122 30z"/>
<path d="M361 270 c9 -14 19 -24 23 -22 14 5 10 15 -14 31 l-25 16 16 -25z"/>
<path d="M1125 350 c3 -5 35 -10 70 -10 35 0 67 5 70 10 4 6 -22 10 -70 10
-48 0 -74 -4 -70 -10z"/>
<path d="M1152 185 c-18 -25 -32 -48 -32 -51 0 -3 16 4 35 16 l35 22 35 -22
c19 -12 35 -17 35 -11 0 16 -54 90 -66 91 -5 0 -25 -20 -42 -45z"/>
<path d="M1992 323 l3 -48 48 -3 47 -3 0 50 0 51 -51 0 -50 0 3 -47z"/>
<path d="M4298 363 c7 -3 16 -2 19 1 4 3 -2 6 -13 5 -11 0 -14 -3 -6 -6z"/>
<path d="M4247 344 c-4 -4 -7 -47 -7 -96 l0 -88 65 0 66 0 -3 93 -3 92 -55 3
c-31 2 -59 0 -63 -4z"/>
<path d="M4297 143 c-12 -11 -8 -23 8 -23 8 0 15 7 15 15 0 16 -12 20 -23 8z"/>
<path d="M5910 352 c0 -10 -63 -82 -72 -82 -5 0 -8 7 -8 15 0 21 -13 19 -35
-5 -24 -27 -13 -79 26 -116 55 -53 145 -31 175 43 18 41 6 88 -29 120 -24 22
-57 36 -57 25z m58 -104 c19 -16 15 -29 -25 -65 -51 -45 -71 -41 -40 7 8 15 9
23 1 28 -14 9 -24 38 -16 46 8 8 63 -3 80 -16z"/>
<path d="M7420 339 c-65 -26 -81 -110 -31 -160 72 -72 192 1 161 97 -18 54
-79 84 -130 63z m50 -48 c0 -23 5 -30 23 -33 33 -5 22 -23 -15 -23 -32 0 -33
2 -36 43 -2 33 0 42 12 42 11 0 16 -9 16 -29z"/>
<path d="M5126 319 c-11 -57 -10 -59 44 -59 43 0 49 2 43 18 -8 24 -54 72 -69
72 -6 0 -14 -14 -18 -31z"/>
<path d="M6577 344 c-4 -4 -7 -49 -7 -101 l0 -93 100 0 101 0 -3 98 -3 97 -90
3 c-50 1 -94 0 -98 -4z m163 -86 l0 -61 -23 21 c-13 12 -27 22 -32 22 -12 0
-55 -41 -55 -52 0 -5 10 -13 23 -18 21 -8 21 -9 -5 -9 -26 -1 -58 21 -58 39 0
5 14 26 32 46 l32 36 -25 19 -24 19 68 0 67 0 0 -62z"/>
</g>
</svg>
